<?xml version="1.0" standalone="no"?>
<!DOCTYPE svg PUBLIC "-//W3C//DTD SVG 20010904//EN"
 "http://www.w3.org/TR/2001/REC-SVG-20010904/DTD/svg10.dtd">
<svg version="1.0" xmlns="http://www.w3.org/2000/svg"
 width="300.000000pt" height="73.000000pt" viewBox="0 0 300.000000 73.000000"
 preserveAspectRatio="xMidYMid meet">
<metadata>
Created by potrace 1.10, written by Peter Selinger 2001-2011
</metadata>
<g transform="translate(0.000000,73.000000) scale(0.100000,-0.100000)"
fill="#000000" stroke="none">
<path d="M1604 520 c-65 -34 -93 -42 -156 -47 -56 -4 -78 -10 -78 -19 0 -16
28 -17 85 -4 l40 9 -31 -27 c-37 -31 -56 -65 -52 -89 2 -13 -23 -28 -101 -62
-99 -44 -135 -71 -94 -71 11 0 23 4 29 9 9 10 116 52 119 48 1 -1 -4 -16 -11
-33 -10 -23 -25 -35 -61 -49 -62 -23 -133 -63 -133 -76 0 -16 62 -48 105 -55
53 -7 116 10 146 40 18 18 47 28 114 41 50 9 128 32 175 52 47 19 92 37 101
40 9 2 41 -12 71 -32 107 -70 231 -98 351 -79 68 12 38 19 -75 19 -103 0 -118
3 -172 28 -32 15 -81 43 -109 63 l-50 36 -86 -41 c-104 -49 -271 -90 -278 -68
-2 4 -3 22 -3 40 0 31 2 33 73 55 275 86 308 93 410 90 53 -2 97 0 97 4 0 5
-14 14 -31 21 -30 12 -19 15 195 62 124 27 226 53 226 57 0 4 -4 8 -8 8 -16 0
-376 -80 -430 -96 -40 -11 -61 -12 -91 -4 -22 6 -84 15 -138 20 -110 10 -197
-2 -274 -39 -48 -23 -56 -22 -40 7 23 42 86 80 171 102 98 25 140 45 140 65 0
28 -65 17 -146 -25z m90 5 c-17 -8 -44 -16 -60 -20 -24 -4 -22 -2 11 14 22 11
49 19 60 19 15 0 12 -3 -11 -13z m124 -141 c84 -9 66 -23 -38 -30 -45 -3 -108
-12 -139 -19 -60 -16 -144 -19 -176 -5 -18 7 -15 10 20 25 22 9 67 23 100 31
58 13 94 13 233 -2z m-128 -67 c-19 -6 -81 -25 -137 -42 l-102 -32 -6 29 c-9
38 -2 43 34 29 23 -10 45 -10 111 3 46 8 85 18 88 21 3 3 15 5 26 4 14 -1 9
-5 -14 -12z m-262 -53 c2 -25 -2 -31 -29 -41 -18 -7 -34 -11 -37 -9 -2 2 6 23
18 46 24 46 44 48 48 4z m2 -79 c0 -32 -3 -35 -29 -35 -25 0 -60 24 -50 34 3
3 65 31 77 35 1 1 2 -15 2 -34z m-85 -27 c6 -14 21 -24 38 -26 34 -4 34 -17 0
-39 -35 -23 -136 -24 -177 -1 l-30 15 25 14 c27 15 121 58 129 59 3 0 10 -10
15 -22z"/>
</g>
</svg>
